<?xml version="1.0" encoding="UTF-8" standalone="no"?>
<!-- Created with Inkscape (http://www.inkscape.org/) -->

<svg
   xmlns:dc="http://purl.org/dc/elements/1.1/"
   xmlns:cc="http://creativecommons.org/ns#"
   xmlns:rdf="http://www.w3.org/1999/02/22-rdf-syntax-ns#"
   xmlns:svg="http://www.w3.org/2000/svg"
   xmlns="http://www.w3.org/2000/svg"
   xmlns:sodipodi="http://sodipodi.sourceforge.net/DTD/sodipodi-0.dtd"
   xmlns:inkscape="http://www.inkscape.org/namespaces/inkscape"
   width="141.1111mm"
   height="141.30969mm"
   viewBox="0 0 141.1111 141.30969"
   version="1.1"
   id="svg8"
   inkscape:version="0.92.3 (2405546, 2018-03-11)"
   sodipodi:docname="Stl.svg">
  <defs
     id="defs2" />
  <sodipodi:namedview
     id="base"
     pagecolor="#ffffff"
     bordercolor="#666666"
     borderopacity="1.0"
     inkscape:pageopacity="0.0"
     inkscape:pageshadow="2"
     inkscape:zoom="0.7"
     inkscape:cx="207.86069"
     inkscape:cy="307.98534"
     inkscape:document-units="mm"
     inkscape:current-layer="svg8"
     showgrid="false"
     fit-margin-top="0"
     fit-margin-left="0"
     fit-margin-right="0"
     fit-margin-bottom="0"
     inkscape:window-width="1366"
     inkscape:window-height="676"
     inkscape:window-x="0"
     inkscape:window-y="24"
     inkscape:window-maximized="1" />
  <metadata
     id="metadata5">
    <rdf:RDF>
      <cc:Work
         rdf:about="">
        <dc:format>image/svg+xml</dc:format>
        <dc:type
           rdf:resource="http://purl.org/dc/dcmitype/StillImage" />
        <dc:title></dc:title>
      </cc:Work>
    </rdf:RDF>
  </metadata>
  <path
     style="fill:#ff6600;stroke-width:1.33333325"
     d="M 254.76367 0 C 228.55648 -0.001074218 202.34461 0.2020039 176.14258 0.32617188 C 172.98367 0.32180411 169.82456 0.33106494 166.66602 0.31835938 C 166.54957 0.33470592 166.43113 0.34558862 166.31445 0.36132812 C 161.45294 0.37977338 156.59115 0.40355563 151.73047 0.41210938 C 151.39881 0.46242089 151.06115 0.50117029 150.72656 0.54492188 C 149.63359 0.54934067 148.54021 0.55657511 147.44727 0.56054688 C 146.54176 0.67555536 145.62053 0.75788721 144.69141 0.828125 C 133.79011 0.33346095 122.67943 -0.60902031 112.30469 0.68164062 C 112.28185 0.68364947 112.25916 0.6854669 112.23633 0.6875 C 109.07253 0.90423185 105.99394 1.3854464 103.07422 2.3476562 C 100.86976 2.9991862 98.746062 3.8626532 96.712891 4.9667969 C 94.476997 6.0184204 92.310852 7.2725102 90.230469 8.78125 C 90.216075 9.1151523 90.205622 9.4492926 90.191406 9.7832031 C 89.904607 10.063152 89.614502 10.332689 89.333984 10.628906 C 89.33209 11.438127 89.333749 12.247418 89.332031 13.056641 C 89.297726 20.400297 89.285693 27.743627 89.277344 35.087891 C 87.217319 103.19879 88.227977 171.44934 87.392578 239.60742 C 87.945905 241.341 88.221649 242.805 88.269531 244.04688 C 88.260091 244.41148 88.251776 244.77602 88.242188 245.14062 C 88.195171 245.6987 88.092946 246.20371 87.939453 246.6582 C 84.102736 249.06511 79.067442 250.13376 73.515625 250.74023 C 72.406027 250.72235 71.301549 250.7072 70.238281 250.73438 C 60.652922 249.5556 50.817723 250.87635 42.601562 255.02148 C 37.953398 256.81242 33.949719 259.59468 31.148438 264.08984 C 29.101001 266.57739 27.35634 269.41441 26 272.62305 C 25.959519 317.21059 25.294401 361.80323 25.580078 406.38867 C 25.289623 411.32034 25.290508 416.57383 25.728516 421.80469 C 25.757363 424.24003 25.772662 426.67605 25.808594 429.11133 C 25.50024 437.62477 28.4149 444.38302 33.208984 449.51562 C 34.193614 450.70314 35.299364 451.71616 36.509766 452.58008 C 37.5371 453.40337 38.62029 454.16979 39.75 454.88281 C 42.737519 457.1996 46.290009 458.86981 50.492188 459.69531 C 58.252519 462.04394 66.781295 462.60884 74.421875 461.50195 C 77.17156 460.85474 79.499654 460.62934 81.449219 460.7832 C 85.071897 463.13666 87.301616 466.98766 88.621094 471.68164 C 88.498284 472.80038 88.307589 473.98729 88.017578 475.27344 C 88.272061 495.39923 83.686448 522.60233 107.35938 531.37109 L 108.68164 531.63281 C 110.09758 532.22515 111.55834 532.67481 113.05469 533.00391 L 114 533.48242 C 114.64323 533.48116 115.28646 533.47978 115.92969 533.47852 C 121.03507 534.12892 126.44534 533.74752 131.80469 533.44727 C 135.64648 533.43973 139.48828 533.43332 143.33008 533.42578 C 143.623 533.45353 143.92034 533.46757 144.21094 533.50195 C 164.31579 533.39354 184.42323 533.39781 204.53125 533.43164 C 213.61353 533.47283 222.69621 533.47983 231.7793 533.48438 C 276.44766 533.61451 321.1177 533.80971 365.77539 533.41602 C 379.84475 533.41154 393.91361 533.41712 407.98242 533.43359 C 411.36167 533.61376 414.73565 533.76383 418.08203 533.82422 C 423.32774 534.17658 428.42193 534.23178 433.08789 533.48242 C 436.16143 533.49066 439.2351 533.49166 442.30859 533.50195 C 444.33671 532.11753 446.02112 530.56433 447.4375 528.88281 C 448.67291 528.27995 449.88735 527.61554 451.07422 526.86914 C 458.42169 507.20067 455.04054 485.3196 456.06445 464.46289 C 460.7144 463.66945 466.15928 462.73559 471.75 461.41797 C 482.52529 460.46538 493.16962 457.33957 500.02344 449.98242 C 500.22108 449.77422 500.41414 449.55935 500.60156 449.33789 C 503.29477 446.25134 505.34005 442.453 506.5 437.81055 C 507.84769 433.69344 508.24088 428.90158 507.37695 423.30664 C 508.7381 382.67956 507.24327 341.94989 507.46484 301.28711 C 506.01392 290.58213 510.30809 278.23016 504.88477 268.66406 C 497.70954 252.85252 481.46153 250.94082 466.05469 250.42383 C 462.65875 249.87643 459.47043 249.38187 456.6543 248.84766 C 456.20554 202.46475 455.87738 156.08018 455.24805 109.69922 C 455.42733 105.42834 454.71142 101.53581 453.35352 97.916016 C 453.3175 97.268312 453.28939 96.620289 453.25195 95.972656 C 452.78927 95.476918 452.31883 94.987375 451.85547 94.492188 C 446.28305 83.558169 434.84587 75.110926 424.66016 66.152344 C 420.87906 62.304353 417.07935 58.473506 413.25977 54.662109 C 412.59292 53.833537 411.94573 52.997459 411.3418 52.142578 C 394.4772 36.583226 379.47962 17.82368 360.94336 4.5546875 C 359.70964 3.3136368 358.46971 2.0767834 357.23828 0.83398438 L 355.8418 0.83398438 L 335.125 0.83398438 C 317.91867 0.37671799 300.70428 0.17245605 283.48633 0.10351562 C 281.6979 0.090535093 279.9096 0.080484143 278.12109 0.0703125 C 278.00587 0.069797006 277.89062 0.070817914 277.77539 0.0703125 C 270.10505 0.027438855 262.43502 0.00031444443 254.76367 0 z M 268.70312 32.373047 C 284.71094 32.368977 300.71715 32.402872 316.72461 32.490234 C 317.04119 32.798565 317.34351 33.120727 317.63281 33.457031 C 318.22855 50.875091 318.50977 68.301888 318.79297 85.728516 C 318.62795 92.283989 318.45221 98.994532 319.09961 105.34961 C 316.09469 120.06041 328.70094 130.45638 340.45117 136.83594 C 367.45669 137.1016 394.46128 137.36713 421.4668 137.63281 C 421.77782 137.67905 422.08965 137.71882 422.40039 137.76758 C 422.49974 139.00559 422.58227 140.24541 422.67188 141.48438 C 422.56381 158.95846 422.45577 176.43219 422.34766 193.90625 C 422.23327 212.39467 422.12024 230.88263 422.00586 249.37109 L 418.36523 249.85938 C 411.6673 249.99847 404.96995 250.11595 398.27148 250.22266 C 379.91424 250.26424 361.55648 250.30619 343.19922 250.34766 C 271.27877 250.01907 199.21074 252.00788 127.4043 249.36914 C 125.41588 248.58144 123.58133 247.61013 121.92383 246.42773 C 121.11361 176.34891 121.90601 106.25679 121.99219 36.171875 C 122.55863 34.992789 123.20337 33.877873 123.93164 32.830078 C 146.07879 32.780094 168.22562 32.686214 190.37305 32.59375 L 232.24023 32.449219 C 244.39417 32.413832 256.5493 32.376137 268.70312 32.373047 z M 180.83594 273.39648 C 250.32058 273.28278 319.81658 273.82996 389.29492 273.54688 C 419.90434 274.74416 451.39719 271.46741 481.50977 276.00586 C 481.95309 276.27667 482.38392 276.56875 482.8125 276.86523 C 484.29221 283.73386 485.01514 290.74578 485.33398 297.83203 C 485.334 305.92256 485.33397 314.01298 485.33398 322.10352 C 485.08354 332.09518 484.78285 342.08806 485.33398 351.9043 C 485.08249 357.64812 485.05076 363.42897 485.10547 369.22656 C 484.90171 379.97847 485.44237 390.88798 485.5332 401.7207 C 485.45253 412.94877 484.8469 424.09752 482.78516 435.01953 C 482.23119 435.70369 481.677 436.38809 481.12305 437.07227 L 477.55078 437.69922 C 467.19955 437.89945 456.84841 438.06208 446.49609 438.20703 C 338.9752 438.32448 231.45431 438.61303 123.93359 438.29688 C 100.38711 436.0852 73.390994 442.46071 51.898438 434.63281 C 51.048877 434.22775 50.211506 433.79778 49.396484 433.32227 C 48.942721 427.30491 48.639317 421.27951 48.433594 415.25 C 48.375334 413.32586 48.324852 411.40115 48.277344 409.47656 C 47.784012 389.05344 48.268374 368.58539 48 348.16602 C 49.71431 339.603 48.884942 329.27637 48.074219 318.89258 C 48.082288 311.69592 48.070886 304.49967 48 297.30664 C 48.215588 295.21849 48.126279 292.98377 48.005859 290.73242 C 49.079079 284.3921 51.361925 278.82134 55.783203 274.63672 C 97.458828 273.77136 139.14515 273.46471 180.83594 273.39648 z M 165.11914 300.93555 C 153.67439 300.96188 142.08966 304.24734 133.70898 310.04492 C 125.57979 318.44538 123.66652 326.47934 125.67383 333.64844 C 127.00063 342.79211 132.66829 347.86393 140.02539 351.26953 C 150.47895 358.45188 164.422 362.95409 175.4375 363.375 C 178.51127 365.15634 181.09993 367.35086 182.88867 370.23828 C 186.66685 378.53372 172.792 384.16219 160.14062 382.81836 C 153.95954 380.52418 148.09104 376.18353 143.57031 371.92578 C 143.53147 371.77819 143.48555 371.63878 143.44922 371.48828 C 143.11912 371.27303 142.81641 371.10805 142.49609 370.91016 C 142.46562 370.88014 142.44048 370.85031 142.41016 370.82031 C 142.09928 369.77495 141.88591 368.65725 141.79102 367.45898 C 108.82675 356.73125 125.04401 395.80636 144.82031 399.31641 C 161.59922 402.02765 182.38865 404.437 196.77734 393.25977 C 207.44612 385.06651 209.62533 374.56208 206.61523 365.00391 C 205.65466 360.94419 203.69588 357.50404 201.0332 354.57031 C 200.87346 354.37627 200.71269 354.18199 200.54492 353.99219 C 193.39132 345.20487 181.8639 339.00529 169.92773 339.36133 C 169.76441 339.36942 169.61267 339.36342 169.45117 339.36914 C 166.21359 338.56966 163.05283 337.8659 160.125 337.23047 C 159.30024 337.01653 158.53796 336.79096 157.80664 336.5625 C 155.97775 335.72584 154.30803 334.86243 152.85547 333.97461 C 149.75787 330.84398 148.90073 326.94988 150.57031 323.93359 C 153.07363 321.7321 157.07561 319.96543 161.4375 319.16406 C 163.83577 319.13275 166.59753 319.40852 169.78125 320.11719 C 172.38877 323.06726 177.1032 326.71841 182.20898 329.45508 C 182.32318 329.89124 182.42716 330.33952 182.51172 330.80664 C 185.87698 332.58912 189.04589 333.25563 191.83398 333.10352 C 195.95564 333.86672 199.60752 333.24137 201.82812 330.29688 C 202.20771 330.08522 202.58133 329.88614 202.97266 329.64453 C 202.94531 329.27352 202.90794 328.91113 202.86914 328.54883 C 203.41461 327.32155 203.79093 325.83124 203.96484 324.04688 C 203.54886 322.86076 203.07159 321.72825 202.54492 320.64062 C 201.87809 316.43174 198.7379 311.95694 192.21094 308.59375 C 184.70086 303.31375 174.96554 300.9129 165.11914 300.93555 z M 293.77344 301.47461 C 290.58357 301.50808 287.54027 301.95343 285.03125 302.86719 C 284.5009 303.00906 283.94773 303.13007 283.37109 303.23242 C 277.52161 303.18291 271.67175 303.13348 265.82227 303.08398 C 257.92131 302.4115 249.69817 301.57885 243.32227 302.61328 C 238.04067 302.08787 233.15652 302.07619 231.27148 305.94336 C 228.80715 312.8205 229.69903 316.4038 232.42773 318.24609 C 232.49713 318.65511 232.57559 319.07292 232.66602 319.50195 C 233.8522 319.55587 235.03843 319.61015 236.22461 319.66406 C 238.90962 320.18159 242.19172 320.15611 245.57812 320.08789 C 249.6223 320.27172 253.66676 320.45485 257.71094 320.63867 C 258.0807 320.71861 258.4433 320.80557 258.79492 320.90625 C 259.75706 321.8143 260.56846 322.87204 261.23828 324.06836 C 261.64573 327.10365 261.95721 330.14866 262.18555 333.20312 C 262.29185 347.94625 262.07431 362.71985 262.66406 377.43164 C 262.69231 384.75558 262.89876 392.06488 263.60742 399.33008 L 263.60742 399.33203 C 265.5499 399.69879 267.5056 399.86604 269.46875 399.93359 C 273.09982 400.57058 276.99064 400.48049 280.46484 399.63672 C 281.86818 399.57017 283.26872 399.51334 284.66602 399.5 C 284.71377 394.30064 284.76093 389.10171 284.80859 383.90234 C 286.14628 366.97799 285.19223 349.571 285.18945 332.40234 C 285.97474 326.4029 288.07855 321.64758 293.07617 319.85156 C 296.5734 319.63107 300.49419 319.82277 304.28711 319.89062 C 304.71441 319.98863 305.12067 320.06643 305.56641 320.18359 C 313.74463 322.73165 315.80397 319.45258 316.03516 314.43359 C 316.51553 312.96578 316.44786 311.59127 315.93359 310.32617 C 315.76216 308.07824 315.47547 305.72136 315.33398 303.50195 C 312.38483 303.47703 309.43548 303.45267 306.48633 303.42773 C 302.60035 302.12809 298.0545 301.42969 293.77344 301.47461 z M 352.61719 303.43359 C 350.63025 303.45773 348.37688 303.81286 345.86523 304.50195 C 345.19243 304.40483 344.55304 304.27438 344 304.06055 C 344.21827 335.79852 343.37822 367.57358 344.88867 399.2793 L 344.88867 399.28125 C 346.56283 399.35527 348.24249 399.42128 349.91992 399.49023 C 354.64702 400.27765 359.63286 399.94636 364.4707 399.99805 C 364.93084 400.0109 365.39132 400.01912 365.85156 400.03125 C 366.51472 400.05072 367.17922 400.06725 367.83398 400.11133 C 367.87837 400.10082 367.92795 400.09422 367.97266 400.08398 C 375.10581 400.25405 382.24737 400.34443 389.38086 400.2793 C 397.40184 400.94178 405.4405 401.45873 411.06836 399.58398 C 412.73634 399.48873 414.40397 399.3867 416.06836 399.26953 C 419.19253 393.98122 419.78441 390.29367 418.62109 387.73633 C 418.54199 386.4462 418.3438 385.04335 418 383.50195 C 416.12567 383.47551 414.25128 383.44831 412.37695 383.42188 C 400.81637 380.28339 377.66166 384.86223 368.35352 381.75 C 367.4822 375.49542 366.96963 369.19856 366.66406 362.87891 C 366.6644 355.06846 366.6662 347.25771 366.66211 339.44727 C 367.61213 331.14472 368.12475 321.7478 366.17383 314.63086 C 366.14069 312.87284 366.10062 311.1162 366.04297 309.36133 C 366.34869 304.51811 362.32315 303.89367 357.4375 304.10938 C 356.02032 303.65339 354.42506 303.41163 352.61719 303.43359 z M 416.80273 461.11719 C 419.72104 462.90953 421.68205 465.7311 422.92383 469.21484 C 422.60527 473.3302 421.65421 478.06689 422.36914 481.16797 C 422.2513 487.45723 422.1335 493.74589 422.01562 500.03516 L 418.37109 500.52539 C 412.31694 500.6499 406.26363 500.75965 400.20898 500.85938 C 308.60195 500.9879 216.98676 501.80543 125.39062 500.65625 C 123.88653 499.57989 122.71419 498.15913 121.82617 496.46094 C 120.98249 485.984 121.41007 475.42301 121.36133 464.90234 C 122.08326 463.65994 122.88496 462.58455 123.75586 461.70703 C 126.15678 461.63416 128.55788 461.56952 130.95898 461.50195 L 415.19531 461.50195 C 415.77605 461.33001 416.30121 461.21138 416.80273 461.11719 z "
     transform="scale(0.26458333)"
     id="path209" />
</svg>
